<svg width="80" height="78" viewBox="0 0 80 78" fill="none" xmlns="http://www.w3.org/2000/svg">
  <path d="M45.0473 17.1129L26.8806 21.8813C19.7774 23.7458 16.3362 29.8849 18.3238 37.1511L22.9108 53.9207C24.8927 61.1663 31.0063 64.7975 38.1096 62.933L56.2762 58.1646C63.3795 56.3002 66.7997 50.1665 64.8178 42.9209L60.2307 26.1513C58.2432 18.8851 52.1505 15.2485 45.0473 17.1129Z" fill="url(#paint0_linear_2_18618)"/>
  <g opacity="0.5" filter="url(#filter0_f_2_18618)">
    <rect x="29.3776" y="56.4016" width="28.5066" height="29.6832" rx="13" transform="rotate(-105 29.3776 56.4016)" fill="#8237FF"/>
  </g>
  <g filter="url(#filter1_b_2_18618)">
    <path d="M65.0091 28.264H43.5772C35.1973 28.264 29.5613 34.0272 29.5613 42.5993V62.383C29.5613 70.9309 35.1973 76.6941 43.5772 76.6941H65.0091C73.389 76.6941 79.0003 70.9309 79.0003 62.383V42.5993C79.0003 34.0272 73.389 28.264 65.0091 28.264Z" fill="#BA90FF" fill-opacity="0.35"/>
    <path d="M65.0091 27.764H43.5772C39.2691 27.764 35.6307 29.2479 33.0693 31.8676C30.5088 34.4863 29.0613 38.2019 29.0613 42.5993V62.383C29.0613 66.7687 30.509 70.4783 33.0695 73.0938C35.6309 75.7102 39.2691 77.1941 43.5772 77.1941H65.0091C69.3172 77.1941 72.9496 75.7102 75.5049 73.0934C78.0592 70.4776 79.5003 66.7681 79.5003 62.383V42.5993C79.5003 38.2025 78.0594 34.4869 75.5051 31.868C72.9497 29.248 69.3173 27.764 65.0091 27.764Z" stroke="url(#paint1_linear_2_18618)" stroke-linecap="round" stroke-linejoin="round"/>
  </g>
  <g filter="url(#filter2_bd_2_18618)">
    <mask id="path-5-inside-1_2_18618" fill="white">
      <path fill-rule="evenodd" clip-rule="evenodd" d="M62.164 61.4618C62.4631 61.6338 62.7894 61.7161 63.1132 61.7161C63.7436 61.7161 64.3591 61.3989 64.7076 60.8298C64.8843 60.5393 64.9685 60.2201 64.969 59.9049C64.9702 59.2846 64.6469 58.6794 64.0649 58.3373L55.2648 53.1965V42.0075C55.2648 41.005 54.4342 40.1913 53.4108 40.1913C52.3874 40.1913 51.5569 41.005 51.5569 42.0075V54.228V54.2288C51.5569 54.8681 51.9005 55.4614 52.4591 55.7907L62.164 61.4618Z"/>
    </mask>
    <path fill-rule="evenodd" clip-rule="evenodd" d="M62.164 61.4618C62.4631 61.6338 62.7894 61.7161 63.1132 61.7161C63.7436 61.7161 64.3591 61.3989 64.7076 60.8298C64.8843 60.5393 64.9685 60.2201 64.969 59.9049C64.9702 59.2846 64.6469 58.6794 64.0649 58.3373L55.2648 53.1965V42.0075C55.2648 41.005 54.4342 40.1913 53.4108 40.1913C52.3874 40.1913 51.5569 41.005 51.5569 42.0075V54.228V54.2288C51.5569 54.8681 51.9005 55.4614 52.4591 55.7907L62.164 61.4618Z" fill="url(#paint2_linear_2_18618)"/>
    <path d="M62.164 61.4618L61.9622 61.8072L61.9647 61.8086L62.164 61.4618ZM64.7076 60.8298L65.0487 61.0388L65.0494 61.0376L64.7076 60.8298ZM64.969 59.9049L64.569 59.9041V59.9043L64.969 59.9049ZM64.0649 58.3373L64.2676 57.9925L64.2667 57.992L64.0649 58.3373ZM55.2648 53.1965H54.8648V53.4261L55.063 53.5419L55.2648 53.1965ZM52.4591 55.7907L52.256 56.1353L52.2573 56.136L52.4591 55.7907ZM63.1132 61.3161C62.8578 61.3161 62.6004 61.2513 62.3633 61.115L61.9647 61.8086C62.3258 62.0162 62.721 62.1161 63.1132 62.1161V61.3161ZM64.3665 60.6209C64.0945 61.0651 63.6118 61.3161 63.1132 61.3161V62.1161C63.8754 62.1161 64.6237 61.7327 65.0487 61.0388L64.3665 60.6209ZM64.569 59.9043C64.5686 60.148 64.5037 60.3953 64.3658 60.622L65.0494 61.0376C65.2649 60.6832 65.3684 60.2922 65.369 59.9055L64.569 59.9043ZM65.369 59.9056C65.3704 59.1461 64.9745 58.408 64.2676 57.9925L63.8622 58.6822C64.3194 58.9508 64.5699 59.4231 64.569 59.9041L65.369 59.9056ZM64.2667 57.992L55.4665 52.8511L55.063 53.5419L63.8632 58.6827L64.2667 57.992ZM54.8648 42.0075V53.1965H55.6648V42.0075H54.8648ZM53.4108 40.5913C54.2211 40.5913 54.8648 41.2336 54.8648 42.0075H55.6648C55.6648 40.7763 54.6473 39.7913 53.4108 39.7913V40.5913ZM51.9569 42.0075C51.9569 41.2336 52.6005 40.5913 53.4108 40.5913V39.7913C52.1743 39.7913 51.1569 40.7763 51.1569 42.0075H51.9569ZM51.9569 54.228V42.0075H51.1569V54.228H51.9569ZM51.9569 54.2288V54.228H51.1569V54.2288H51.9569ZM52.6622 55.4461C52.2229 55.1871 51.9569 54.7234 51.9569 54.2288H51.1569C51.1569 55.0128 51.578 55.7356 52.256 56.1353L52.6622 55.4461ZM62.3658 61.1165L52.6609 55.4453L52.2573 56.136L61.9622 61.8072L62.3658 61.1165Z" fill="url(#paint3_linear_2_18618)" mask="url(#path-5-inside-1_2_18618)"/>
  </g>
  <defs>
    <filter id="filter0_f_2_18618" x="0.917999" y="0.102234" width="78.2129" height="77.3809" filterUnits="userSpaceOnUse" color-interpolation-filters="sRGB">
      <feFlood flood-opacity="0" result="BackgroundImageFix"/>
      <feBlend mode="normal" in="SourceGraphic" in2="BackgroundImageFix" result="shape"/>
      <feGaussianBlur stdDeviation="12" result="effect1_foregroundBlur_2_18618"/>
    </filter>
    <filter id="filter1_b_2_18618" x="4.56126" y="3.26404" width="99.439" height="98.4301" filterUnits="userSpaceOnUse" color-interpolation-filters="sRGB">
      <feFlood flood-opacity="0" result="BackgroundImageFix"/>
      <feGaussianBlur in="BackgroundImageFix" stdDeviation="12"/>
      <feComposite in2="SourceAlpha" operator="in" result="effect1_backgroundBlur_2_18618"/>
      <feBlend mode="normal" in="SourceGraphic" in2="effect1_backgroundBlur_2_18618" result="shape"/>
    </filter>
    <filter id="filter2_bd_2_18618" x="36.5569" y="25.1913" width="43.4121" height="51.5247" filterUnits="userSpaceOnUse" color-interpolation-filters="sRGB">
      <feFlood flood-opacity="0" result="BackgroundImageFix"/>
      <feGaussianBlur in="BackgroundImageFix" stdDeviation="7.5"/>
      <feComposite in2="SourceAlpha" operator="in" result="effect1_backgroundBlur_2_18618"/>
      <feColorMatrix in="SourceAlpha" type="matrix" values="0 0 0 0 0 0 0 0 0 0 0 0 0 0 0 0 0 0 127 0" result="hardAlpha"/>
      <feOffset dx="5" dy="5"/>
      <feGaussianBlur stdDeviation="5"/>
      <feColorMatrix type="matrix" values="0 0 0 0 0.577356 0 0 0 0 0.359375 0 0 0 0 0.9375 0 0 0 0.5 0"/>
      <feBlend mode="normal" in2="effect1_backgroundBlur_2_18618" result="effect2_dropShadow_2_18618"/>
      <feBlend mode="normal" in="SourceGraphic" in2="effect2_dropShadow_2_18618" result="shape"/>
    </filter>
    <linearGradient id="paint0_linear_2_18618" x1="35.9535" y1="19.4999" x2="46.758" y2="60.663" gradientUnits="userSpaceOnUse">
      <stop stop-color="#BC94FF"/>
      <stop offset="1" stop-color="#9F66FF"/>
    </linearGradient>
    <linearGradient id="paint1_linear_2_18618" x1="37.4312" y1="33.9062" x2="68.1842" y2="72.7881" gradientUnits="userSpaceOnUse">
      <stop stop-color="white" stop-opacity="0.25"/>
      <stop offset="1" stop-color="white" stop-opacity="0"/>
    </linearGradient>
    <linearGradient id="paint2_linear_2_18618" x1="64.0181" y1="44.0783" x2="49.0685" y2="44.382" gradientUnits="userSpaceOnUse">
      <stop stop-color="white"/>
      <stop offset="1" stop-color="white" stop-opacity="0.2"/>
    </linearGradient>
    <linearGradient id="paint3_linear_2_18618" x1="53.6918" y1="42.699" x2="67.279" y2="53.1846" gradientUnits="userSpaceOnUse">
      <stop stop-color="white" stop-opacity="0.25"/>
      <stop offset="1" stop-color="white" stop-opacity="0"/>
    </linearGradient>
  </defs>
</svg>