<svg width="75" height="70" viewBox="0 0 75 70" fill="none" xmlns="http://www.w3.org/2000/svg">
  <path d="M40.0741 46.2468C39.8577 46.3718 39.6127 46.4473 39.3594 46.4595L31.1952 46.8537C28.878 46.9646 26.8847 46.7385 25.0992 46.1652C21.1924 44.9126 17.9139 42.302 15.8699 38.8105L9.13815 27.3214C8.36095 25.9955 8.53518 24.3022 9.56693 23.1066L18.8104 12.4281C19.3559 11.7882 20.1193 11.3429 20.9537 11.1747L34.7886 8.34722C36.336 8.02866 37.8988 8.70781 38.6733 10.033L45.41 21.5306C47.4528 25.016 48.128 29.1477 47.3131 33.1651C46.9389 35.0079 46.1593 36.8555 44.9321 38.8137L40.6072 45.7277C40.4737 45.9434 40.2895 46.1202 40.0741 46.2468Z" fill="url(#paint0_linear_2_18606)"/>
  <g filter="url(#filter0_f_2_18606)">
    <path d="M36.4638 39.4015C36.317 39.4862 36.1533 39.5417 35.9865 39.5587L30.6105 40.1047C29.0847 40.259 27.7842 40.1945 26.633 39.9092C24.1141 39.286 22.0585 37.8061 20.8463 35.7396L16.8536 28.9398C16.3926 28.1551 16.5701 27.1094 17.2921 26.3373L23.7599 19.4398C24.142 19.0269 24.6599 18.7251 25.214 18.5909L34.4045 16.3404C35.4326 16.0873 36.4336 16.4458 36.8928 17.2302L40.8884 24.0351C42.1 26.0978 42.3895 28.6083 41.7048 31.1039C41.3904 32.2488 40.8096 33.4116 39.9308 34.659L36.8332 39.0631C36.7375 39.2004 36.61 39.3158 36.4638 39.4015Z" fill="#1EA51F" fill-opacity="0.5"/>
  </g>
  <g filter="url(#filter1_b_2_18606)">
    <mask id="path-3-outside-1_2_18606" maskUnits="userSpaceOnUse" x="20.5603" y="8.67047" width="55.9546" height="62.6456" fill="black">
      <rect fill="white" x="20.5603" y="8.67047" width="55.9546" height="62.6456"/>
      <path d="M44.5255 66.3618C44.1971 66.3113 43.8802 66.1853 43.6074 65.9863L34.8162 59.5729C32.3219 57.7516 30.4441 55.8494 29.0709 53.7585C26.065 49.1854 24.8417 43.7203 25.6321 38.3678L28.2268 20.7501C28.5258 18.7167 30.1174 17.0951 32.1829 16.7099L50.6618 13.2924C51.7604 13.0807 52.9228 13.2541 53.9277 13.7761L70.6244 22.3904C72.4939 23.3515 73.5479 25.3666 73.2466 27.397L70.6499 45.0277C69.8634 50.3728 67.1208 55.2492 62.9289 58.7606C61.0056 60.3712 58.6581 61.6475 55.7544 62.6653L45.5107 66.2657C45.1925 66.3792 44.8543 66.4097 44.5255 66.3618Z"/>
    </mask>
    <path d="M44.5255 66.3618C44.1971 66.3113 43.8802 66.1853 43.6074 65.9863L34.8162 59.5729C32.3219 57.7516 30.4441 55.8494 29.0709 53.7585C26.065 49.1854 24.8417 43.7203 25.6321 38.3678L28.2268 20.7501C28.5258 18.7167 30.1174 17.0951 32.1829 16.7099L50.6618 13.2924C51.7604 13.0807 52.9228 13.2541 53.9277 13.7761L70.6244 22.3904C72.4939 23.3515 73.5479 25.3666 73.2466 27.397L70.6499 45.0277C69.8634 50.3728 67.1208 55.2492 62.9289 58.7606C61.0056 60.3712 58.6581 61.6475 55.7544 62.6653L45.5107 66.2657C45.1925 66.3792 44.8543 66.4097 44.5255 66.3618Z" fill="#72DC60" fill-opacity="0.35"/>
    <path d="M44.3735 67.3502C44.9194 67.4341 45.4299 67.0597 45.5139 66.5138C45.5978 65.9679 45.2234 65.4574 44.6775 65.3734L44.3735 67.3502ZM43.6074 65.9863L44.1968 65.1785L44.1968 65.1784L43.6074 65.9863ZM34.8162 59.5729L34.2265 60.3806L34.2269 60.3808L34.8162 59.5729ZM29.0709 53.7585L29.9068 53.2096L29.9066 53.2092L29.0709 53.7585ZM25.6321 38.3678L26.6214 38.5139L26.6214 38.5136L25.6321 38.3678ZM28.2268 20.7501L29.2161 20.8958L29.2161 20.8956L28.2268 20.7501ZM32.1829 16.7099L32.0011 15.7266L31.9996 15.7269L32.1829 16.7099ZM50.6618 13.2924L50.8436 14.2758L50.851 14.2744L50.6618 13.2924ZM53.9277 13.7761L53.4667 14.6635L53.4692 14.6648L53.9277 13.7761ZM70.6244 22.3904L70.1659 23.279L70.1672 23.2797L70.6244 22.3904ZM73.2466 27.397L72.2574 27.2502L72.2573 27.2513L73.2466 27.397ZM70.6499 45.0277L69.6606 44.882L69.6606 44.8822L70.6499 45.0277ZM62.9289 58.7606L63.5709 59.5273L63.571 59.5272L62.9289 58.7606ZM55.7544 62.6653L55.4236 61.7216L55.4228 61.7219L55.7544 62.6653ZM45.5107 66.2657L45.1791 65.3222L45.1747 65.3238L45.5107 66.2657ZM44.6697 65.3722C44.1232 65.2926 43.6156 65.6711 43.5359 66.2176C43.4563 66.7641 43.8348 67.2717 44.3813 67.3513L44.6697 65.3722ZM44.6775 65.3734C44.4993 65.346 44.3341 65.2786 44.1968 65.1785L43.018 66.7941C43.4264 67.0921 43.8948 67.2765 44.3735 67.3502L44.6775 65.3734ZM44.1968 65.1784L35.4056 58.7651L34.2269 60.3808L43.0181 66.7942L44.1968 65.1784ZM35.4059 58.7653C32.987 56.999 31.2009 55.18 29.9068 53.2096L28.2351 54.3074C29.6873 56.5187 31.6568 58.5042 34.2265 60.3806L35.4059 58.7653ZM29.9066 53.2092C27.0335 48.8382 25.8674 43.6201 26.6214 38.5139L24.6428 38.2218C23.8161 43.8205 25.0965 49.5325 28.2353 54.3078L29.9066 53.2092ZM26.6214 38.5136L29.2161 20.8958L27.2375 20.6044L24.6428 38.2221L26.6214 38.5136ZM29.2161 20.8956C29.4509 19.2994 30.7061 18.0026 32.3663 17.693L31.9996 15.7269C29.5286 16.1877 27.6008 18.134 27.2374 20.6046L29.2161 20.8956ZM32.3648 17.6932L50.8436 14.2758L50.4799 12.3091L32.0011 15.7266L32.3648 17.6932ZM50.851 14.2744C51.7243 14.106 52.658 14.2434 53.4667 14.6635L54.3886 12.8886C53.1875 12.2648 51.7964 12.0553 50.4725 12.3105L50.851 14.2744ZM53.4692 14.6648L70.1659 23.279L71.0829 21.5017L54.3862 12.8874L53.4692 14.6648ZM70.1672 23.2797C71.6675 24.051 72.494 25.6564 72.2574 27.2502L74.2358 27.5438C74.6019 25.0768 73.3202 22.6519 71.0816 21.501L70.1672 23.2797ZM72.2573 27.2513L69.6606 44.882L71.6392 45.1734L74.2359 27.5427L72.2573 27.2513ZM69.6606 44.8822C68.9103 49.9812 66.2933 54.6379 62.2867 57.9941L63.571 59.5272C67.9482 55.8606 70.8166 50.7643 71.6393 45.1733L69.6606 44.8822ZM62.2868 57.9939C60.4743 59.5117 58.239 60.7348 55.4236 61.7216L56.0852 63.609C59.0771 62.5603 61.5368 61.2306 63.5709 59.5273L62.2868 57.9939ZM55.4228 61.7219L45.1791 65.3223L45.8422 67.2091L56.086 63.6087L55.4228 61.7219ZM45.1747 65.3238C45.0149 65.3808 44.8419 65.3973 44.6697 65.3722L44.3813 67.3513C44.8668 67.4221 45.3701 67.3775 45.8466 67.2076L45.1747 65.3238Z" fill="url(#paint1_linear_2_18606)" mask="url(#path-3-outside-1_2_18606)"/>
  </g>
  <g filter="url(#filter2_bd_2_18606)">
    <path d="M45.6226 45.6811C45.1095 45.6048 44.6252 45.3413 44.2884 44.9008L39.9562 39.2291C39.2879 38.3489 39.4695 37.1149 40.3642 36.4697C41.2592 35.8219 42.5288 36.0092 43.2002 36.8872L46.3176 40.9663L56.6041 33.5332C57.5019 32.8859 58.7715 33.0732 59.4401 33.9508C60.111 34.8314 59.9291 36.0681 59.0348 36.7106L47.1244 45.3183C46.6753 45.6433 46.1357 45.7573 45.6226 45.6811Z" fill="url(#paint2_linear_2_18606)"/>
    <path d="M40.4228 36.5507L40.4227 36.5508C39.5739 37.1629 39.4014 38.3329 40.0358 39.1686C40.0358 39.1686 40.0358 39.1686 40.0358 39.1687L44.3678 44.8401C44.3679 44.8401 44.3679 44.8401 44.3679 44.8401C44.6879 45.2586 45.1482 45.5095 45.6373 45.5822C46.126 45.6548 46.639 45.5461 47.0657 45.2373L47.0658 45.2373L58.9762 36.6296L58.9764 36.6294C59.8246 36.02 59.9976 34.8476 59.3606 34.0114C58.7249 33.1771 57.5167 32.9986 56.6627 33.6143L40.4228 36.5507ZM40.4228 36.5507C41.2739 35.9348 42.4823 36.1129 43.1207 36.9479L46.2382 41.027L46.2973 41.1044L46.3762 41.0473L56.6626 33.6144L40.4228 36.5507Z" stroke="url(#paint3_linear_2_18606)" stroke-opacity="0.5" stroke-width="0.2"/>
  </g>
  <defs>
    <filter id="filter0_f_2_18606" x="0.599335" y="0.260071" width="57.4687" height="55.9262" filterUnits="userSpaceOnUse" color-interpolation-filters="sRGB">
      <feFlood flood-opacity="0" result="BackgroundImageFix"/>
      <feBlend mode="normal" in="SourceGraphic" in2="BackgroundImageFix" result="shape"/>
      <feGaussianBlur stdDeviation="8" result="effect1_foregroundBlur_2_18606"/>
    </filter>
    <filter id="filter1_b_2_18606" x="0.397629" y="-11.7957" width="97.9001" height="103.179" filterUnits="userSpaceOnUse" color-interpolation-filters="sRGB">
      <feFlood flood-opacity="0" result="BackgroundImageFix"/>
      <feGaussianBlur in="BackgroundImageFix" stdDeviation="12"/>
      <feComposite in2="SourceAlpha" operator="in" result="effect1_backgroundBlur_2_18606"/>
      <feBlend mode="normal" in="SourceGraphic" in2="effect1_backgroundBlur_2_18606" result="shape"/>
    </filter>
    <filter id="filter2_bd_2_18606" x="24.5534" y="18.1478" width="50.2916" height="42.556" filterUnits="userSpaceOnUse" color-interpolation-filters="sRGB">
      <feFlood flood-opacity="0" result="BackgroundImageFix"/>
      <feGaussianBlur in="BackgroundImageFix" stdDeviation="7.5"/>
      <feComposite in2="SourceAlpha" operator="in" result="effect1_backgroundBlur_2_18606"/>
      <feColorMatrix in="SourceAlpha" type="matrix" values="0 0 0 0 0 0 0 0 0 0 0 0 0 0 0 0 0 0 127 0" result="hardAlpha"/>
      <feOffset dx="5" dy="5"/>
      <feGaussianBlur stdDeviation="5"/>
      <feColorMatrix type="matrix" values="0 0 0 0 0.454902 0 0 0 0 0.870588 0 0 0 0 0.376471 0 0 0 0.5 0"/>
      <feBlend mode="normal" in2="effect1_backgroundBlur_2_18606" result="effect2_dropShadow_2_18606"/>
      <feBlend mode="normal" in="SourceGraphic" in2="effect2_dropShadow_2_18606" result="shape"/>
    </filter>
    <linearGradient id="paint0_linear_2_18606" x1="34.7117" y1="2.99998" x2="24.2234" y2="42.1256" gradientUnits="userSpaceOnUse">
      <stop stop-color="#9BF763"/>
      <stop offset="1" stop-color="#26AB5B"/>
    </linearGradient>
    <linearGradient id="paint1_linear_2_18606" x1="36.1363" y1="17.0949" x2="65.1099" y2="58.8058" gradientUnits="userSpaceOnUse">
      <stop stop-color="white" stop-opacity="0.25"/>
      <stop offset="1" stop-color="white" stop-opacity="0"/>
    </linearGradient>
    <linearGradient id="paint2_linear_2_18606" x1="58.3537" y1="35.8139" x2="36.5809" y2="33.46" gradientUnits="userSpaceOnUse">
      <stop stop-color="white"/>
      <stop offset="1" stop-color="white" stop-opacity="0.2"/>
    </linearGradient>
    <linearGradient id="paint3_linear_2_18606" x1="42.0579" y1="35.5427" x2="58.5375" y2="38.2056" gradientUnits="userSpaceOnUse">
      <stop stop-color="white"/>
      <stop offset="1" stop-color="white" stop-opacity="0"/>
    </linearGradient>
  </defs>
</svg>